<?xml version="1.0" encoding="UTF-8"?>
<svg id="Layer_1" data-name="Layer 1" xmlns="http://www.w3.org/2000/svg" xmlns:xlink="http://www.w3.org/1999/xlink" viewBox="0 0 576 576">
  <defs>
    <style>
      .cls-1 {
        fill: #fff;
      }

      .cls-2 {
        fill: url(#linear-gradient);
        filter: url(#drop-shadow-1);
      }

      .cls-3 {
        filter: url(#drop-shadow-2);
      }
    </style>
    <linearGradient id="linear-gradient" x1="80.26" y1="288" x2="495.74" y2="288" gradientUnits="userSpaceOnUse">
      <stop offset="0" stop-color="#262262"/>
      <stop offset="1" stop-color="#92278f"/>
    </linearGradient>
    <filter id="drop-shadow-1" filterUnits="userSpaceOnUse">
      <feOffset dx="7" dy="7"/>
      <feGaussianBlur result="blur" stdDeviation="5"/>
      <feFlood flood-color="#000" flood-opacity=".75"/>
      <feComposite in2="blur" operator="in"/>
      <feComposite in="SourceGraphic"/>
    </filter>
    <filter id="drop-shadow-2" filterUnits="userSpaceOnUse">
      <feOffset dx="7" dy="7"/>
      <feGaussianBlur result="blur-2" stdDeviation="5"/>
      <feFlood flood-color="#000" flood-opacity=".75"/>
      <feComposite in2="blur-2" operator="in"/>
      <feComposite in="SourceGraphic"/>
    </filter>
  </defs>
  <ellipse class="cls-2" cx="288" cy="288" rx="207.74" ry="202"/>
  <g class="cls-3">
    <path class="cls-1" d="M158.43,219.31c2.03,5.19,3.57,10.48,7.07,14.97-.32-1.46-.62-2.92-.97-4.37-1.92-7.93-4.17-15.85-3.19-24.11,.58-4.84,1.84-9.59,3.26-14.38,1.15,12.22,.75,24.67,7.5,35.5-.05-5.01-.49-10.07-.05-15.04,.45-5.04,1.77-10,2.72-15,.19,0,.38-.01,.57-.02,.45,1.37,.89,2.74,1.47,4.54,2.9-10.01,5.18-19.72,10.78-28.11l.68,.21c-.65,2.31-1.2,4.65-1.96,6.93-3.12,9.44-4.33,19.09-2.82,28.93,.97,6.33,3.74,12.05,7.37,17.32,.16,.23,.35,.44,.54,.65,3.89,4.23,6.31,4.17,9.73-.44,.51,3.42-.14,6.46-1.52,9.32-2.26,4.7-4.56,9.36-4.81,14.71-.05,1.11,0,2.22-.16,3.38-2.23-4.94-3.72-10.23-7.61-14.43,.08,1.71,.28,3.42,.23,5.13-.14,4.35-.31,8.7-.61,13.04-.39,5.49,.87,10.76,1.99,16.05,.5,2.34,1.1,4.66,1.61,6.99,.14,.64,.16,1.31,.22,1.87-2.65-3.68-5.29-7.32-7.92-10.97-.18,.1-.37,.2-.55,.3,.2,7.32,.12,14.77,4.72,21.06,4.15,5.68,7.55,11.65,9.66,18.4,1.63,5.2,4.26,9.94,7.75,14.17,.35,.42,.58,.95,.66,1.63-5.56-3.51-9.98-8.31-14.52-12.95-4.57-4.67-9.11-9.38-12.38-15.35v4.03c-.12,.08-.24,.16-.35,.25-1.39-1.94-2.97-3.77-4.14-5.84-4.77-8.4-9.15-17.04-10.35-26.75-.88-7.14-2.92-13.87-5.67-20.43-.78-1.87-1.92-3.59-2.86-5.39-.47-.9-.86-1.83-1.04-2.91,5.13,3.34,8.45,8.25,11.86,13.08,.19-.08,.38-.15,.57-.23-.4-1.35-.71-2.73-1.22-4.03-1.78-4.51-3.66-8.97-5.42-13.49-.37-.95-.45-2.05-.5-3.09-.22-4.71-.39-9.42-.56-14.13-.01-.33,.13-.67,.19-1.01Z"/>
    <path class="cls-1" d="M362.13,280.67c3.94-3.52,6.56-7.75,6.73-13.31,1.56,2.01,1.79,4.83-.62,16.7-1.11,5.45-3.68,10.6-5.49,15.63,2.68-1.14,3.99-4.17,5.96-6.6-1.74,11.17-9.24,19.47-14.02,29.35,1.71-1.28,3.51-2.45,5.1-3.88,1.64-1.47,3.07-3.19,4.83-5.04-1.61,4.04-3.6,7.47-5.97,10.79-3.75,5.25-8.74,8.93-14.15,12.1-3.42,2-7.19,3.38-10.73,5.18-1.74,.89-3.52,1.9-4.91,3.25-1.5,1.46-2.57,3.38-4.12,5.49,.84-2.81,1.44-5.36,2.38-7.77,.95-2.44,2.23-4.76,3.19-7.28-11.88,5.8-22,13.2-24.64,27.52-.59-7.82,.81-15.26,4.31-22.01,3.43-6.63,7.71-12.81,11.59-19.14-3.23,1.22-7.69,4.85-12.25,9.51,.92-2.12,1.64-4.36,2.8-6.35,2.38-4.06,5.08-7.94,7.48-11.99,.93-1.58,1.42-3.42,1.73-5.28-3.64,3.2-7.27,6.4-10.91,9.59-.17-.1-.34-.2-.51-.3,.58-1.07,1.01-2.27,1.76-3.19,3.64-4.46,7.21-9,11.12-13.23,5.93-6.4,12.01-12.67,18.22-18.79,3.55-3.5,7.59-6.5,11.21-9.94,4.55-4.33,8.48-9.2,11.34-14.83,.65-1.28,.92-2.75,1.51-4.59,1.23,3.37,1.06,6.47,.76,9.5-.32,3.2-.88,6.4-1.61,9.54-.71,3.06-1.77,6.03-2.67,9.05,.19,.11,.39,.22,.58,.33Z"/>
    <path class="cls-1" d="M204.24,318.34c1.7,1.35,3.38,2.68,5.06,4.02,.14-.15,.27-.29,.41-.44-2.94-7.6-6.59-14.76-12.15-20.89-3.41-3.75-6.42-7.84-8.09-12.73-.14-.42-.18-.88-.27-1.32,.17-.12,.34-.25,.51-.37,4.08,4.29,8.15,8.58,12.23,12.87,.16-.11,.32-.23,.48-.34-.95-2.44-2.09-4.82-2.82-7.32-1.72-5.85-3.2-11.78-4.86-17.65-1.11-3.91-2.53-7.73-3.49-11.67-.58-2.4-.54-4.95-.76-7.19,2.05,4.86,3.85,10.02,6.35,14.82,2.53,4.86,5.91,9.23,10.24,12.68-1.4-3.03-2.95-6.06-4.21-9.2-1.93-4.8-1.8-9.93-2.02-14.98-.24-5.54-.51-11.07-.75-16.61-.01-.3,.07-.61,.49-.95,.57,3.04,1.21,6.07,1.7,9.12,1.41,8.9,5.53,16.28,12.28,22.23,6.86,6.05,13.88,11.93,20.47,18.27,5.18,4.98,8.9,11.11,11.55,17.28-4.93-3.37-10.17-6.95-15.4-10.52-.21,.21-.42,.41-.63,.62,6.58,8.76,12.4,17.86,13.59,29.36-2.26-3.82-5.23-6.62-9.51-8.92,1.3,2.39,2.56,4.17,3.29,6.14,1.62,4.41,2.92,8.93,4.44,13.38,1.67,4.89,4.03,9.43,7.29,13.48,.3,.38,.48,.86,.5,1.51-3.94-4.19-9.43-5.44-14.22-7.93-4.1-2.13-8.57-3.61-12.47-6.03-8.14-5.04-14.56-11.89-19.26-20.29-.05-.09,.02-.24,.04-.42Z"/>
    <path class="cls-1" d="M284.86,456.28c-1.81-3.49-1.06-6.9-.35-10.34,.77-3.71,1.43-7.45,2.03-11.19,.19-1.22,.03-2.5,.03-4.23,.88,1.51,1.58,2.7,2.28,3.9,2.18-10.92,4.53-21.61,10.94-30.94,6.26-9.09,13.46-17.32,21.62-24.84-6.18,10.77-9.66,22.1-8.54,35.17,.65-.76,.94-1.02,1.14-1.34,5.56-8.85,13.03-15.81,21.49-21.81,9.18-6.51,19.55-10.27,30.22-13.47,4.34-1.31,8.54-3.13,12.73-4.9,1.5-.64,2.78-1.83,4.51-2.46-.47,.6-.86,1.3-1.43,1.79-5.37,4.64-10.6,9.47-16.2,13.82-8.9,6.91-15.67,15.41-20.85,25.38-3.95,7.61-9.14,14.45-16.08,19.54-3.12,2.29-7.15,3.54-10.93,4.72-4.54,1.43-9.24,2.33-13.89,3.38-7.27,1.64-12.26,6.22-16,12.37-1.01,1.66-1.75,3.5-2.71,5.45Z"/>
    <path class="cls-1" d="M358.48,331.15c5.34-7.18,8.75-15.3,11.71-23.63,2.96-8.34,5.05-16.85,4.83-26.27-1.51,2.27-2.73,4.1-3.96,5.94,1.66-10.26,3.37-20.26,1.15-30.68-1.38,1.1-2.45,1.97-3.54,2.81-.14,.11-.4,.06-.64,.09,1.42-10.65,1.42-21.11-3.23-31.12,1.4-.27,2.9-.43,4.32-.86,5.62-1.72,8.82-6.14,10.77-11.15,1.91-4.93,3.11-10.22,3.98-15.46,.99-5.98-.08-11.86-2.4-17.67,.42,.49,.94,.92,1.26,1.47,2.47,4.28,3.77,8.93,4.06,13.83,.36,6.02,1.54,12.01,.43,18.07-.56,3.08-.89,6.2-1.35,9.44,2.65-1.53,3.65-3.87,6.47-14.24,0,1.94,.09,3.89-.03,5.82-.12,1.96-.34,3.93-.69,5.86-.37,2-1,3.94-1.43,5.93-.41,1.88-.7,3.78-1.05,5.67l.5,.13c1.73-2.75,3.44-5.5,5.18-8.24,.68-1.07,1.32-2.16,2.09-3.16,3.06-3.94,4.36-8.45,4.45-13.37,0-.33,.06-.66,.59-1.07,.08,.51,.2,1.01,.23,1.53,.4,7-1.49,13.49-4.29,19.8-2.95,6.62-4.5,13.56-4.73,20.84-.12,3.78-.79,7.55-1.21,11.33-.05,.47-.06,.94,.13,1.5,3.54-4.54,7.01-9.1,7.42-15.21,.19,0,.37,0,.56,.01,.13,.99,.45,1.99,.36,2.96-.38,4.05-.4,8.23-1.44,12.12-2.02,7.49-3.57,15.16-7.62,22.02-4.14,7.01-7.58,14.44-11.84,21.37-4.64,7.56-10.44,14.29-16.79,20.52-.95,.94-1.81,1.97-2.76,2.91-.28,.27-.73,.36-1.11,.54-.13-.13-.26-.25-.38-.38Z"/>
    <path class="cls-1" d="M179.86,364.07c2.87,2.54,5.65,5.21,8.64,7.61,5.09,4.09,10.74,7.17,17.16,8.7,6.14,1.46,12.34,2.76,18.42,4.45,5.84,1.62,11.37,3.97,16.43,7.47,4.83,3.34,7.59,8,9.7,13.23,.13,.32,.28,.63,.43,.94,.03,.05,.12,.07,.39,.21,2.06-2.99,1-6.26,.71-9.98,.79,.62,1.44,.87,1.61,1.31,.9,2.32,2.12,4.64,2.4,7.05,.33,2.89-.18,5.87-.32,8.81-.28,5.97,1.75,11.25,5.27,15.89,2.37,3.12,5.22,5.88,7.82,8.84,.35,.4,.48,1.01,.47,1.74-4.54-3.2-9.9-3.69-14.83-5.36-9.87-3.34-18-9.2-24.45-17.3-4.82-6.05-9.24-12.41-13.96-18.53-5.55-7.2-12.5-12.88-19.7-18.38-4.88-3.73-9.01-8.44-13.44-12.75-1.15-1.12-2.16-2.37-3.24-3.56,.17-.13,.34-.26,.51-.38Z"/>
    <path class="cls-1" d="M318.35,352.61c-1.36,4.31-2.57,8.15-3.78,11.99,.2,.1,.4,.2,.6,.3,.32-.28,.69-.51,.95-.84,7.62-9.96,17.39-17.14,28.85-21.98,4.83-2.04,9.9-3.51,14.87-5.21,8.18-2.79,13.81-8.41,17.77-15.91,.28-.54,.62-1.04,1.25-1.45-.04,.38,.02,.82-.15,1.13-3.18,6.11-6.05,12.42-9.68,18.25-4.1,6.58-10.08,11.55-16.23,16.17-6.93,5.21-14.54,9.31-22.5,12.73-11.06,4.76-20.45,11.64-27.71,21.35-4.41,5.91-8.82,11.85-11.75,18.64-2.58,6-4.57,12.23-4.85,18.96-.09-.83-.3-1.66-.24-2.48,.47-6.45,.99-12.9,1.48-19.35,.59-7.78,2.85-15.19,4.98-22.62,1.35-4.7,3.01-9.32,4.08-14.08,.47-2.09-.16-4.43-.35-6.65-.06-.66-.29-1.3-.28-2,4.13,4.83,4.04,10.94,5.02,17.22,5.35-8.73,9.66-17.67,17.64-24.18Z"/>
    <path class="cls-1" d="M316.66,402.75c3.24-8.27,6.96-15.68,11.47-22.72,3.17-4.94,7.34-8.82,11.61-12.72,6.43-5.88,14.06-9.41,22.2-12.01,4.31-1.37,8.85-2.13,13.03-3.79,3.34-1.32,6.54-3.29,9.41-5.48,7.06-5.38,14.11-10.89,19.3-18.19,2.94-4.13,5.08-8.83,7.57-13.28,.29-.53,.51-1.1,.77-1.65,.2,.04,.39,.08,.59,.12-.61,3.51-.73,7.21-1.93,10.5-3.57,9.82-7,19.75-12.71,28.64-4.63,7.21-11.02,12.17-18.6,16.26-6.45,3.47-13.59,3.35-20.08,5.8-7.98,3.01-15.97,6.21-23.5,10.18-5.46,2.88-10.47,6.82-14.05,12.19-1.37,2.06-3.17,3.84-5.11,6.14Z"/>
    <path class="cls-1" d="M280.84,451.94c-1.03-7.24-4.95-12.65-10.01-17.46-3.48-3.31-6.74-6.8-8.89-11.18-2.83-5.76-3.2-11.8-2.63-18.11,.34-3.72,.34-7.63-.44-11.26-2.86-13.25-9.02-25.09-16.89-36-2.39-3.31-5.78-5.9-8.71-8.82-.22-.22-.43-.45-.43-.95,8.67,5.03,16.94,10.58,23.95,17.84,7,7.25,12.37,15.53,15.53,25.6,1.45-3.82,2.71-7.12,3.96-10.43,.27,.07,.54,.13,.81,.2-1.61,6.11-.79,12.14,.61,18.07,.7,2.97,2.24,5.72,3.19,8.64,1.77,5.43,3.01,10.94,2.51,16.76-.54,6.38-.73,12.78-1.24,19.16-.21,2.67-.87,5.3-1.33,7.95Z"/>
    <path class="cls-1" d="M270.79,287.72c-5.22,8.64-10.76,17.03-10.59,28.24,3.49-4.66,6.69-8.9,7.87-14.49,.09,.9,.25,1.8,.24,2.69-.03,3.76-.65,7.39-2.16,10.87-2.1,4.84-2.96,9.96-3.09,15.21-.01,.46,.16,.93,.31,1.78,1.64-3.47,3.12-6.58,4.59-9.7,.15,.07,.31,.15,.46,.22v26.73c4.84-4.24,10.95-11.13,7.5-18.63,2.31,2,3.04,4.89,3.88,7.61,.78,2.53,1.37,5.24,1.38,7.87,0,2.06-.73,4.26-1.63,6.16-1.05,2.2-2.53,4.23-4.03,6.18-4.49,5.85-4.37,12.37-3.02,19.11,.07,.34,.16,.68,.2,1.02,.01,.1-.13,.22,0,.03-2.5-3.35-4.67-7.21-7.74-10.13-4.16-3.98-7.35-8.55-9.91-13.54-3.8-7.39-6.87-15.02-6.84-23.62,.04-10.5,3.43-19.74,9.19-28.4,3.7-5.55,7.76-10.68,12.86-14.97,.14-.12,.35-.16,.53-.24Z"/>
    <path class="cls-1" d="M350.93,410.36c1.54-4.24,4.38-8.05,7.24-11.85,5.75-7.65,12.71-14.11,19.92-20.33,8.24-7.11,17.79-11.65,28.16-14.7,4.83-1.42,9.64-3.01,14.29-4.94,4.37-1.81,7.12-5.61,9.73-9.4,.26-.37,.51-.74,.9-1.04-.45,4.31-2.31,8.01-4.74,11.49-5.49,7.88-12.77,13.53-21.37,17.67-5.83,2.81-9.77,7.63-13.24,12.97-2.67,4.11-6.32,7.32-10.57,9.81-2.97,1.74-5.79,3.81-8.92,5.18-2.91,1.27-6.12,1.91-9.25,2.63-3.99,.93-8.03,1.66-12.16,2.5Z"/>
    <path class="cls-1" d="M166.89,293.73c4.28,8.93,6.99,18.57,15.3,25.62-.9-3.75-1.68-7.04-2.47-10.33,.13-.05,.27-.1,.4-.15,1.43,2.34,2.99,4.62,4.27,7.05,2.88,5.45,7.54,9.1,12.58,12.19,6.35,3.88,13.16,7.02,19.42,11.04,8.12,5.21,15.02,11.84,20.18,20.11,2.04,3.28,4.08,6.56,6.09,9.86,.23,.38,.27,.88,.33,1.08-9.76-4.98-19.57-9.99-29.32-14.96,.04,.21,.15,.76,.28,1.43-5.36-.75-9.49-3.77-13.67-6.52-6.84-4.51-13.2-9.63-18.09-16.32-4.09-5.59-7.12-11.74-9.67-18.17-2.68-6.77-4.76-13.66-5.67-20.89-.04-.33,.02-.68,.04-1.02Z"/>
    <path class="cls-1" d="M171.24,321.6c.65,1.54,1.36,2.95,1.84,4.43,3.21,10,10.17,17.19,17.88,23.76,9.24,7.87,19.71,13.7,30.99,18.09,.62,.24,1.27,.39,2.18,.17-1.73-1.93-3.47-3.87-5.2-5.8,.12-.15,.24-.29,.36-.44,.93,.55,1.85,1.12,2.78,1.66,5.48,3.15,11.04,6.18,16.41,9.5,3.1,1.92,6.36,3.9,8.71,6.59,2.87,3.28,4.88,7.32,7.21,11.07,.58,.93,.97,1.97,1.67,3.44-1.79-1.49-3.09-2.76-4.57-3.78-5.63-3.87-11.97-6.03-18.55-7.7-9.24-2.34-18.52-4.63-27.57-7.6-4.23-1.39-8.09-4.12-11.85-6.66-2.83-1.91-5.16-4.53-7.81-6.73-4.04-3.35-6.13-7.95-8.32-12.52-3.96-8.27-5.62-17.16-7.06-26.11-.04-.26,0-.57,.1-.81,.06-.15,.31-.23,.8-.56Z"/>
    <path class="cls-1" d="M396.36,359.82c8.47-5.5,13.23-13.75,17.25-22.67,1.88-4.16,2.41-8.51,3.05-12.86,1.24-8.49,2.19-17.02,3.29-25.53,1.22-9.4,4.27-18.2,9.35-26.19,3.81-5.99,8.02-11.72,12.15-17.51,.78-1.1,2-1.89,3.01-2.82,.18,.12,.36,.25,.54,.37-.28,.63-.48,1.31-.84,1.89-3.2,5.14-6.05,10.43-7.99,16.22-1.97,5.86-2.92,11.83-3.02,18-.09,5.41-.45,10.81-.56,16.22-.06,3.09,.32,6.19,.18,9.27-.39,8.53-1,17.07-5.98,24.43-1.63,2.42-3.72,4.64-5.97,6.5-5.23,4.34-10.53,8.61-16.81,11.45-2.03,.92-3.87,2.23-5.83,3.3-.48,.27-1.08,.32-1.63,.47-.06-.19-.12-.38-.18-.56Z"/>
    <path class="cls-1" d="M280.45,269.33c.52,.04,1.02-.08,1.21,.11,3.64,3.82,7.37,7.58,9.43,12.58,.61,1.47,.56,2.67-.3,4.15-2.94,5.05-5.33,10.36-6.38,16.18-.73,4.02-.11,7.82,1.77,11.42,2.35,4.48,4.91,8.86,7.08,13.43,3.52,7.42,3.44,14.99,.53,22.67-2.3,6.07-4.74,12.16-6.25,18.45-1.54,6.44-2.04,13.13-2.94,19.72-.5,3.62-.85,7.25-1.35,10.86-.08,.56-.55,1.06-.84,1.6-.3-.17-.5-.22-.51-.3-.72-7.48-1.69-14.95-2.07-22.44-.5-10.1,.71-20.01,5.87-28.95,3.86-6.68,3.02-12.97-.45-19.39-2.67-4.94-5.47-9.84-7.68-14.99-3.62-8.45-3.68-16.84,1.43-24.95,3.03-4.8,3.81-10.24,3.22-15.82-.15-1.38-1.08-2.67-1.79-4.33Z"/>
    <path class="cls-1" d="M122.18,251.71c2.5,2.89,5.12,5.7,7.49,8.7,6.85,8.7,11.27,18.65,13.99,29.28,1.51,5.89,2.12,12.01,3.1,18.03,.61,3.74,1.65,7.49,1.66,11.23,0,5.7,1.58,10.93,3.78,15.98,2.09,4.82,4.48,9.57,7.31,13.99,2.22,3.47,5.23,6.44,9.01,8.44,.93,.49,1.71,1.27,2.55,1.92-.13,.2-.26,.41-.39,.61-2.54-1.38-5.2-2.58-7.6-4.17-11.23-7.4-19.86-17.03-25.68-29.28-3.69-7.78-3.93-16-4.45-24.27-.58-9.19,.01-18.47-2.24-27.52-1.66-6.69-3.66-13.26-6.98-19.35-.6-1.1-1.36-2.1-2.04-3.15,.16-.15,.33-.3,.49-.45Z"/>
    <path class="cls-1" d="M144.39,352.03c2.19,3.23,4.26,6.38,6.42,9.45,3.36,4.77,8.43,6.98,13.76,8.32,8.6,2.15,16.74,5.28,23.92,10.49,5.72,4.15,10.31,9.51,14.85,14.9,3.26,3.87,6.83,7.48,10.24,11.24,.86,.95,1.6,2.02,2.4,3.04-.1,.25-.19,.5-.29,.75-4.25-.66-8.54-1.13-12.74-2.02-7.67-1.63-13.99-5.94-19.44-11.28-5.74-5.62-12.05-10.32-18.97-14.29-8.77-5.04-15.01-12.11-17.64-22.08-.75-2.84-1.65-5.64-2.5-8.53Z"/>
    <path class="cls-1" d="M174.45,355.66c-7.3-6.51-13.89-13.41-16.77-23.04-1.38-4.63-3.56-9.05-4.69-13.73-1.37-5.64-1.87-11.49-3.04-17.2-.8-3.89-2.1-7.69-3.18-11.52-.1-.37-.23-.73-.08-1.24,2.52,2.67,5.04,5.34,7.98,8.46-2.94-18.66-9.55-35.04-22.48-48.58,.22-.16,.44-.33,.67-.49,1.26,1.18,2.58,2.29,3.76,3.54,4.55,4.8,8.96,9.74,13.58,14.46,8.98,9.16,12.96,20.37,13.58,32.91,.34,6.81,.36,13.64,.39,20.47,.04,8.62,1.61,16.9,5.17,24.76,1.53,3.38,3.13,6.74,4.7,10.11,.16,.35,.27,.73,.4,1.09Z"/>
    <path class="cls-1" d="M268.33,120.55c-1.55,.71-3.06,1.56-4.67,2.09-10.84,3.6-21.45,7.81-30.64,14.7-6.4,4.8-12.5,10.07-18.34,15.55-4.97,4.66-9.92,9.53-13.88,15.02-5.09,7.06-9.06,14.9-10.88,23.6-.41,1.98-.93,3.93-1.86,6-.17-.86-.52-1.74-.47-2.59,.68-12.34,3.42-23.97,10.94-34.2,4.98-6.78,10.16-13.36,16.55-18.82,8.76-7.48,18.23-13.88,29.3-17.55,3.52-1.17,7-2.43,10.52-3.59,4.36-1.43,8.82-1.04,13.26-.83,.06,.21,.12,.42,.18,.62Z"/>
    <path class="cls-1" d="M287.9,310.08c6.17-.26,11.24-1.92,15.66-5.51,3.54-2.88,7.43-5.35,10.78-8.42,6.63-6.07,13.02-12.41,19.48-18.68,5.24-5.08,10.58-10.08,15.6-15.37,4.42-4.67,8.29-9.89,10.01-16.2,1.87-6.84,1.31-13.67-1.45-20.25-.89-2.12-1.98-4.17-3.25-6.81,.78,.53,1.22,.68,1.43,.99,3.62,5.39,7.32,10.83,7.92,17.49,.5,5.57,.02,11.25-2.92,16.14-4.17,6.93-9.5,12.95-15.34,18.61-9.12,8.85-18.67,17.25-26.86,27.08-5.11,6.13-11.11,11.54-16.92,17.05-4.29,4.07-8.04,3.09-11.14-1.52-.96-1.42-1.87-2.87-3.01-4.61Z"/>
    <path class="cls-1" d="M387.64,311.8c-.63,3.07-1.26,6.15-1.88,9.22,.24,.11,.48,.22,.73,.33,1.1-1.01,2.08-2.21,3.32-3.01,5.75-3.71,10.02-8.67,13.31-14.66,3.7-6.73,8.17-12.95,13.67-18.37,.38-.37,.82-.67,1.58-1.3-.12,.71-.08,1.01-.21,1.17-4.4,5.58-6.82,11.93-8.18,18.9-1.61,8.19-5.38,15.42-10.9,21.8-5.68,6.57-12.39,11.79-19.7,16.35-4.34,2.71-8.54,5.63-12.83,8.42-.47,.31-1.09,.39-1.79,.32,7.4-4.72,10.46-12.35,13.67-19.8,2.3-5.32,4.19-10.82,6.4-16.17,.52-1.27,1.62-2.3,2.45-3.44,.12,.08,.24,.17,.35,.25Z"/>
    <path class="cls-1" d="M379.34,193.55c-.42-.92-.94-1.8-1.25-2.75-1.93-6.03-3.97-11.96-7.29-17.45-4.73-7.81-10.87-14.31-17.58-20.37-4.12-3.73-7.92-7.85-12.28-11.27-6.59-5.19-13.87-9.33-21.65-12.56-5.77-2.4-11.47-4.94-17.2-7.42-.25-.11-.49-.25-.65-.63,2.38-1.07,4.78-1.14,7.13-.85,6.05,.72,11.8,2.56,17.24,5.27,6.85,3.41,13.93,6.5,20.38,10.56,4.69,2.96,8.78,7.02,12.69,11.03,11.4,11.71,17.21,26.29,20.72,41.95,.31,1.4,.42,2.85,.62,4.28-.29,.07-.59,.15-.88,.22Z"/>
    <path class="cls-1" d="M402.93,261.42c4.78-9.32,5.06-19.45,6.25-29.41-.26-.07-.51-.14-.77-.21-.37,.93-.68,1.88-1.13,2.77-1.69,3.39-3.39,6.77-5.19,10.1-.27,.49-1.11,.67-2.15,1.25,2.75-6.28,3.2-12.42,4.17-18.4,1.09-6.72,1.69-13.4,5.4-19.5,3.03-4.98,2.9-10.93,2.05-16.48-.99-6.56-2.78-13.02-4.45-19.46-.53-2.03-1.79-3.86-2.72-5.79,.15-.1,.31-.2,.46-.3,.8,1.2,1.81,2.31,2.38,3.61,3.09,7.09,6.27,14.14,9.01,21.36,1.92,5.08,2.47,10.49,2.54,15.96,.12,9.58-1.21,18.91-4.18,28.02-1.93,5.93-3.62,11.95-5.86,17.76-1.21,3.15-3.34,5.95-5.06,8.91-.25-.07-.51-.14-.76-.21Z"/>
    <path class="cls-1" d="M398.69,277.29c-.18,2.6-.37,5.19-.55,7.79,.18,.03,.37,.07,.55,.1,1.66-1.94,3.31-3.89,4.99-5.81,4.02-4.57,8.53-8.49,13.95-11.4,4.28-2.3,7.78-5.53,9.64-10.25,.18,.09,.35,.17,.53,.26-.66,1.85-1.15,3.78-2,5.54-4.02,8.39-8.3,16.66-14.97,23.31-7.71,7.7-15.57,15.24-24.48,21.61-1.92,1.37-3.4,3.34-5.12,4.99-.62,.59-1.35,1.06-2.33,1.35,10.35-10.6,13.64-24.8,19.17-37.84,.2,.12,.4,.24,.61,.35Z"/>
    <path class="cls-1" d="M396.6,210.88c-.94-4.02-1.88-8.04-2.83-12.06-.19-.01-.38-.02-.57-.03-.56,2.24-1.13,4.49-1.69,6.73-.2-.01-.39-.02-.59-.03-.14-1.88-.29-3.76-.41-5.64-.44-6.82-1.63-13.45-5.84-19.08-2.56-3.43-2.8-7.29-2.52-11.26,.71-10.07-1.86-19.06-8.61-26.69-1.68-1.9-3.53-3.64-5.35-5.51,3.62,1.06,6.61,3.22,9.22,5.8,7.37,7.29,12.89,15.79,15.57,25.89,.69,2.6,.34,5.45,.66,8.16,.5,4.32,1.14,8.62,1.75,12.92,.94,6.6,2.37,13.16,1.8,19.9-.03,.3-.16,.59-.24,.88-.12,0-.23,0-.35,.01Z"/>
    <path class="cls-1" d="M205.88,131.28c-6.48,5.42-12.04,11.54-16.78,18.35-2.54,3.65-4.28,7.77-4.14,12.4,.24,7.88-2.35,14.61-7.38,20.71-6.17,7.48-5.98,7.64-7.5,17.34-.26-1.93-.69-3.85-.74-5.79-.14-6.04-.49-12.11,1.45-17.99,.31-.93,.58-1.91,1.08-2.74,2.65-4.39,4.24-9.17,5.2-14.16,1.31-6.81,4.72-12.44,10.23-16.44,5.65-4.11,11.76-7.61,17.67-11.36,.26-.17,.6-.22,.9-.32Z"/>
    <path class="cls-1" d="M208.85,217.29c-1.63,4.18-2.48,8.44-2.34,13.02,.18,5.7,.58,11.31,2.22,16.8,2.19,7.33,6.4,13.41,12.42,17.92,9.09,6.81,17.34,14.53,25.47,22.4,3.45,3.35,4.96,7.45,4.46,12.24-.1,1-.56,1.96-.93,3.21-1.58-2.41-2.87-4.53-4.3-6.56-4.56-6.46-10.68-11.34-16.54-16.52-6.11-5.4-12.41-10.62-17.29-17.27-5.78-7.88-9.19-16.55-8.83-26.44,.18-4.94,1.38-9.72,3.2-14.32,.62-1.58,1.29-3.14,1.94-4.72,.17,.08,.34,.16,.51,.23Z"/>
    <path class="cls-1" d="M291.64,257.86c-.71-5.13-4.08-9.32-7.54-10.04-.2,1.29-.4,2.6-.6,3.91-.32,.02-.64,.05-.96,.07-1.44-3.72-2.88-7.44-4.36-11.25-.04,.02,.15-.16,.29-.12,7.51,2.17,13.92,5.82,17.13,13.39,2.61,6.13,4.93,12.38,7.44,18.55,1.47,3.62,3.4,6.94,6.67,9.3,.35,.25,.52,.76,.77,1.15-.39,.19-.78,.52-1.18,.54-4.14,.22-8.14-.57-11.93-2.12-4.58-1.88-6.95-5.67-8.19-10.32-1.09-4.13-2.23-8.24-3.43-12.34-.27-.92-.93-1.73-1.32-2.62-.22-.52-.54-1.37-.31-1.61,.34-.37,1.2-.58,1.69-.42,1.17,.4,2.31,.96,3.34,1.63,.8,.52,1.44,1.3,2.48,2.28Z"/>
    <path class="cls-1" d="M351.45,170.77c5.99-.82,10.3,1.85,14.58,4.55,6.02,3.79,8.39,9.84,9.72,16.35,1.33,6.48,2.21,13.11,.54,19.63-.89,3.48-2.44,6.87-4.19,10.02-1.6,2.87-6.95,2.45-8.52-.52-.35-.66-.11-1.96,.33-2.67,9.38-14.96,6.73-29.57-4.13-41.55-2.1-2.31-5.23-3.69-8.34-5.8Z"/>
    <path class="cls-1" d="M433.01,207c2.3,5.12,3.62,10.47,3.85,16.14,.27,6.52-.39,12.93-2.11,19.21-1.26,4.61-4.06,8.14-8.08,10.68-3.62,2.29-7.52,4.19-10.91,6.76-3.45,2.62-6.5,5.77-9.58,8.84-1.35,1.35-2.32,3.08-3.73,4.62,.13-.53,.26-1.07,.4-1.6,1.66-6.09,4.63-11.47,8.88-16.1,4.42-4.82,9.35-9.24,13.32-14.4,6.14-8,9.72-17.12,8.83-27.48-.19-2.19-.98-4.32-1.49-6.48,.21-.06,.42-.12,.62-.18Z"/>
    <path class="cls-1" d="M271.88,245.95c-5.27-8.96-10.11-18.36-21.77-20.85,2.75-2.12,6.74-2.11,10.09-.14,8.64,5.08,14.01,12.92,17.82,21.84,2.53,5.92,4.35,12.14,6.41,18.26,.24,.7-.08,1.59-.14,2.4-.8-.1-1.66-.04-2.38-.34-3.54-1.46-5.6-4.6-8.04-7.3-3.78-4.19-7.38-8.52-9.13-14.01-.84-2.61-1.47-5.29-2.2-7.93l.67-.36c2.71,3,5.41,6,8.12,9.01,.18-.19,.37-.38,.55-.57Z"/>
    <path class="cls-1" d="M154.38,168.4c-1.63,4.47-3.32,8.51-4.59,12.68-2.55,8.36-1.56,16.38,1.9,24.45,2.5,5.83,4.21,12.04,3.77,18.63-.26,3.83-.05,7.69-.05,11.54-.2,.02-.4,.05-.6,.07-.19-.76-.31-1.54-.58-2.27-2.86-7.84-5.3-15.86-8.71-23.45-4.13-9.2-3.5-18.03,.25-26.94,2.16-5.14,4.5-10.23,8.61-14.71Z"/>
    <path class="cls-1" d="M206.03,178.38c-3.25,3.99-5.17,8.55-6.75,13.32-2.37,7.13-1.9,14.1,.68,21.06,.84,2.28,1.53,4.68,1.85,7.08,.16,1.19-.69,2.52-1.08,3.79-1.09-.67-2.45-1.12-3.23-2.05-3.55-4.2-6.13-8.94-6.84-14.47-.8-6.18,.33-12.13,3.3-17.54,2.74-4.98,6.79-8.82,12.07-11.2Z"/>
    <path class="cls-1" d="M128.16,214.73c.35,9.82,5.59,17.02,12.82,22.75,5.3,4.2,9.92,8.8,12.41,15.07,2.01,5.07,3.37,10.4,4.98,15.62,.49,1.6,.85,3.23,1.05,4.93-1.54-2.98-2.98-6.01-4.64-8.93-2.56-4.51-4.46-9.44-8.34-13.12-3.43-3.24-6.91-6.42-10.26-9.75-5.52-5.49-8.51-12.12-8.67-19.96-.04-2.19,0-4.39,0-6.58,.22-.01,.43-.03,.65-.04Z"/>
    <path class="cls-1" d="M253.02,304.24c-.43-5.28,1.32-9.56,5.29-13.16,3.31-3,6.78-6.16,9.02-9.93,2.53-4.28,3.91-9.27,5.47-14.06,.39-1.18-.46-2.77-.54-4.23,2.47,2.34,4.18,4.93,3.77,8.56-.52,4.65-3.45,7.93-6.31,11.19-2.41,2.75-5.16,5.19-7.64,7.89-3.61,3.93-7.26,7.88-8.69,13.26-.05,.19-.25,.33-.38,.5Z"/>
  </g>
</svg>